<?xml version="1.0" encoding="UTF-8" standalone="no"?>
<!DOCTYPE svg PUBLIC "-//W3C//DTD SVG 1.1//EN"
 "http://www.w3.org/Graphics/SVG/1.1/DTD/svg11.dtd">
<!-- Generated by graphviz version 8.0.1 (20230327.1645)
 -->
<!-- Pages: 1 -->
<svg width="1420pt" height="836pt"
 viewBox="0.00 0.00 1419.59 836.00" xmlns="http://www.w3.org/2000/svg" xmlns:xlink="http://www.w3.org/1999/xlink">
<g id="graph0" class="graph" transform="scale(1 1) rotate(0) translate(4 832)">
<polygon fill="white" stroke="none" points="-4,4 -4,-832 1415.59,-832 1415.59,4 -4,4"/>
<!-- 人工知能(0) -->
<g id="node1" class="node">
<title>人工知能(0)</title>
<ellipse fill="none" stroke="black" cx="960.3" cy="-234" rx="57.69" ry="18"/>
<text text-anchor="middle" x="960.3" y="-230.3" font-family="Times,serif" font-size="14.00">人工知能(0)</text>
</g>
<!-- 語(17) -->
<g id="node2" class="node">
<title>語(17)</title>
<ellipse fill="none" stroke="black" cx="725.3" cy="-162" rx="34.39" ry="18"/>
<text text-anchor="middle" x="725.3" y="-158.3" font-family="Times,serif" font-size="14.00">語(17)</text>
</g>
<!-- 人工知能(0)&#45;&gt;語(17) -->
<g id="edge1" class="edge">
<title>人工知能(0)&#45;&gt;語(17)</title>
<path fill="none" stroke="black" d="M919.63,-220.89C876.27,-207.97 808.07,-187.66 765.06,-174.84"/>
<polygon fill="black" stroke="black" points="766.28,-171.26 755.7,-171.76 764.28,-177.97 766.28,-171.26"/>
</g>
<!-- 研究分野とも(34) -->
<g id="node19" class="node">
<title>研究分野とも(34)</title>
<ellipse fill="none" stroke="black" cx="725.3" cy="-90" rx="81.49" ry="18"/>
<text text-anchor="middle" x="725.3" y="-86.3" font-family="Times,serif" font-size="14.00">研究分野とも(34)</text>
</g>
<!-- 語(17)&#45;&gt;研究分野とも(34) -->
<g id="edge18" class="edge">
<title>語(17)&#45;&gt;研究分野とも(34)</title>
<path fill="none" stroke="black" d="M725.3,-143.7C725.3,-136.24 725.3,-127.32 725.3,-118.97"/>
<polygon fill="black" stroke="black" points="728.8,-119.1 725.3,-109.1 721.8,-119.1 728.8,-119.1"/>
</g>
<!-- じんこうちのう(1) -->
<g id="node3" class="node">
<title>じんこうちのう(1)</title>
<ellipse fill="none" stroke="black" cx="799.3" cy="-234" rx="85.29" ry="18"/>
<text text-anchor="middle" x="799.3" y="-230.3" font-family="Times,serif" font-size="14.00">じんこうちのう(1)</text>
</g>
<!-- じんこうちのう(1)&#45;&gt;語(17) -->
<g id="edge2" class="edge">
<title>じんこうちのう(1)&#45;&gt;語(17)</title>
<path fill="none" stroke="black" d="M781.38,-216.05C771.8,-206.99 759.86,-195.69 749.46,-185.86"/>
<polygon fill="black" stroke="black" points="752.2,-183.69 742.53,-179.36 747.39,-188.77 752.2,-183.69"/>
</g>
<!-- AI(2) -->
<g id="node4" class="node">
<title>AI(2)</title>
<ellipse fill="none" stroke="black" cx="515.3" cy="-306" rx="30.59" ry="18"/>
<text text-anchor="middle" x="515.3" y="-302.3" font-family="Times,serif" font-size="14.00">AI(2)</text>
</g>
<!-- エーアイとは(3) -->
<g id="node5" class="node">
<title>エーアイとは(3)</title>
<ellipse fill="none" stroke="black" cx="515.3" cy="-234" rx="74.99" ry="18"/>
<text text-anchor="middle" x="515.3" y="-230.3" font-family="Times,serif" font-size="14.00">エーアイとは(3)</text>
</g>
<!-- AI(2)&#45;&gt;エーアイとは(3) -->
<g id="edge3" class="edge">
<title>AI(2)&#45;&gt;エーアイとは(3)</title>
<path fill="none" stroke="black" d="M515.3,-287.7C515.3,-280.24 515.3,-271.32 515.3,-262.97"/>
<polygon fill="black" stroke="black" points="518.8,-263.1 515.3,-253.1 511.8,-263.1 518.8,-263.1"/>
</g>
<!-- エーアイとは(3)&#45;&gt;語(17) -->
<g id="edge4" class="edge">
<title>エーアイとは(3)&#45;&gt;語(17)</title>
<path fill="none" stroke="black" d="M557.79,-218.83C595.42,-206.29 649.9,-188.13 686.4,-175.96"/>
<polygon fill="black" stroke="black" points="687.28,-179.03 695.66,-172.55 685.06,-172.39 687.28,-179.03"/>
</g>
<!-- 計算(4) -->
<g id="node6" class="node">
<title>計算(4)</title>
<ellipse fill="none" stroke="black" cx="475.3" cy="-810" rx="39.79" ry="18"/>
<text text-anchor="middle" x="475.3" y="-806.3" font-family="Times,serif" font-size="14.00">計算(4)</text>
</g>
<!-- という(5) -->
<g id="node7" class="node">
<title>という(5)</title>
<ellipse fill="none" stroke="black" cx="475.3" cy="-738" rx="48.99" ry="18"/>
<text text-anchor="middle" x="475.3" y="-734.3" font-family="Times,serif" font-size="14.00">という(5)</text>
</g>
<!-- 計算(4)&#45;&gt;という(5) -->
<g id="edge5" class="edge">
<title>計算(4)&#45;&gt;という(5)</title>
<path fill="none" stroke="black" d="M475.3,-791.7C475.3,-784.24 475.3,-775.32 475.3,-766.97"/>
<polygon fill="black" stroke="black" points="478.8,-767.1 475.3,-757.1 471.8,-767.1 478.8,-767.1"/>
</g>
<!-- 道具を(9) -->
<g id="node8" class="node">
<title>道具を(9)</title>
<ellipse fill="none" stroke="black" cx="590.3" cy="-666" rx="48.99" ry="18"/>
<text text-anchor="middle" x="590.3" y="-662.3" font-family="Times,serif" font-size="14.00">道具を(9)</text>
</g>
<!-- という(5)&#45;&gt;道具を(9) -->
<g id="edge6" class="edge">
<title>という(5)&#45;&gt;道具を(9)</title>
<path fill="none" stroke="black" d="M499.97,-721.98C516.49,-711.93 538.45,-698.56 556.58,-687.52"/>
<polygon fill="black" stroke="black" points="557.94,-690.18 564.67,-681.99 554.3,-684.2 557.94,-690.18"/>
</g>
<!-- 用いて(10) -->
<g id="node12" class="node">
<title>用いて(10)</title>
<ellipse fill="none" stroke="black" cx="590.3" cy="-594" rx="52.79" ry="18"/>
<text text-anchor="middle" x="590.3" y="-590.3" font-family="Times,serif" font-size="14.00">用いて(10)</text>
</g>
<!-- 道具を(9)&#45;&gt;用いて(10) -->
<g id="edge10" class="edge">
<title>道具を(9)&#45;&gt;用いて(10)</title>
<path fill="none" stroke="black" d="M590.3,-647.7C590.3,-640.24 590.3,-631.32 590.3,-622.97"/>
<polygon fill="black" stroke="black" points="593.8,-623.1 590.3,-613.1 586.8,-623.1 593.8,-623.1"/>
</g>
<!-- 概念と(6) -->
<g id="node9" class="node">
<title>概念と(6)</title>
<ellipse fill="none" stroke="black" cx="590.3" cy="-738" rx="48.99" ry="18"/>
<text text-anchor="middle" x="590.3" y="-734.3" font-family="Times,serif" font-size="14.00">概念と(6)</text>
</g>
<!-- 概念と(6)&#45;&gt;道具を(9) -->
<g id="edge7" class="edge">
<title>概念と(6)&#45;&gt;道具を(9)</title>
<path fill="none" stroke="black" d="M590.3,-719.7C590.3,-712.24 590.3,-703.32 590.3,-694.97"/>
<polygon fill="black" stroke="black" points="593.8,-695.1 590.3,-685.1 586.8,-695.1 593.8,-695.1"/>
</g>
<!-- コンピュータ(7) -->
<g id="node10" class="node">
<title>コンピュータ(7)</title>
<ellipse fill="none" stroke="black" cx="705.3" cy="-810" rx="76.09" ry="18"/>
<text text-anchor="middle" x="705.3" y="-806.3" font-family="Times,serif" font-size="14.00">コンピュータ(7)</text>
</g>
<!-- という(8) -->
<g id="node11" class="node">
<title>という(8)</title>
<ellipse fill="none" stroke="black" cx="705.3" cy="-738" rx="48.99" ry="18"/>
<text text-anchor="middle" x="705.3" y="-734.3" font-family="Times,serif" font-size="14.00">という(8)</text>
</g>
<!-- コンピュータ(7)&#45;&gt;という(8) -->
<g id="edge8" class="edge">
<title>コンピュータ(7)&#45;&gt;という(8)</title>
<path fill="none" stroke="black" d="M705.3,-791.7C705.3,-784.24 705.3,-775.32 705.3,-766.97"/>
<polygon fill="black" stroke="black" points="708.8,-767.1 705.3,-757.1 701.8,-767.1 708.8,-767.1"/>
</g>
<!-- という(8)&#45;&gt;道具を(9) -->
<g id="edge9" class="edge">
<title>という(8)&#45;&gt;道具を(9)</title>
<path fill="none" stroke="black" d="M680.62,-721.98C664.1,-711.93 642.14,-698.56 624.01,-687.52"/>
<polygon fill="black" stroke="black" points="626.29,-684.2 615.92,-681.99 622.65,-690.18 626.29,-684.2"/>
</g>
<!-- 研究する(12) -->
<g id="node13" class="node">
<title>研究する(12)</title>
<ellipse fill="none" stroke="black" cx="652.3" cy="-522" rx="62.29" ry="18"/>
<text text-anchor="middle" x="652.3" y="-518.3" font-family="Times,serif" font-size="14.00">研究する(12)</text>
</g>
<!-- 用いて(10)&#45;&gt;研究する(12) -->
<g id="edge11" class="edge">
<title>用いて(10)&#45;&gt;研究する(12)</title>
<path fill="none" stroke="black" d="M604.99,-576.41C612.52,-567.91 621.85,-557.37 630.23,-547.91"/>
<polygon fill="black" stroke="black" points="632.27,-550.76 636.28,-540.96 627.03,-546.12 632.27,-550.76"/>
</g>
<!-- 計算機科学(13) -->
<g id="node15" class="node">
<title>計算機科学(13)</title>
<ellipse fill="none" stroke="black" cx="652.3" cy="-450" rx="71.49" ry="18"/>
<text text-anchor="middle" x="652.3" y="-446.3" font-family="Times,serif" font-size="14.00">計算機科学(13)</text>
</g>
<!-- 研究する(12)&#45;&gt;計算機科学(13) -->
<g id="edge13" class="edge">
<title>研究する(12)&#45;&gt;計算機科学(13)</title>
<path fill="none" stroke="black" d="M652.3,-503.7C652.3,-496.24 652.3,-487.32 652.3,-478.97"/>
<polygon fill="black" stroke="black" points="655.8,-479.1 652.3,-469.1 648.8,-479.1 655.8,-479.1"/>
</g>
<!-- 知能を(11) -->
<g id="node14" class="node">
<title>知能を(11)</title>
<ellipse fill="none" stroke="black" cx="714.3" cy="-594" rx="53.09" ry="18"/>
<text text-anchor="middle" x="714.3" y="-590.3" font-family="Times,serif" font-size="14.00">知能を(11)</text>
</g>
<!-- 知能を(11)&#45;&gt;研究する(12) -->
<g id="edge12" class="edge">
<title>知能を(11)&#45;&gt;研究する(12)</title>
<path fill="none" stroke="black" d="M699.6,-576.41C692.07,-567.91 682.74,-557.37 674.36,-547.91"/>
<polygon fill="black" stroke="black" points="677.56,-546.12 668.31,-540.96 672.32,-550.76 677.56,-546.12"/>
</g>
<!-- の(14) -->
<g id="node16" class="node">
<title>の(14)</title>
<ellipse fill="none" stroke="black" cx="652.3" cy="-378" rx="34.39" ry="18"/>
<text text-anchor="middle" x="652.3" y="-374.3" font-family="Times,serif" font-size="14.00">の(14)</text>
</g>
<!-- 計算機科学(13)&#45;&gt;の(14) -->
<g id="edge14" class="edge">
<title>計算機科学(13)&#45;&gt;の(14)</title>
<path fill="none" stroke="black" d="M652.3,-431.7C652.3,-424.24 652.3,-415.32 652.3,-406.97"/>
<polygon fill="black" stroke="black" points="655.8,-407.1 652.3,-397.1 648.8,-407.1 655.8,-407.1"/>
</g>
<!-- 一分野を(15) -->
<g id="node17" class="node">
<title>一分野を(15)</title>
<ellipse fill="none" stroke="black" cx="652.3" cy="-306" rx="62.29" ry="18"/>
<text text-anchor="middle" x="652.3" y="-302.3" font-family="Times,serif" font-size="14.00">一分野を(15)</text>
</g>
<!-- の(14)&#45;&gt;一分野を(15) -->
<g id="edge15" class="edge">
<title>の(14)&#45;&gt;一分野を(15)</title>
<path fill="none" stroke="black" d="M652.3,-359.7C652.3,-352.24 652.3,-343.32 652.3,-334.97"/>
<polygon fill="black" stroke="black" points="655.8,-335.1 652.3,-325.1 648.8,-335.1 655.8,-335.1"/>
</g>
<!-- 指す(16) -->
<g id="node18" class="node">
<title>指す(16)</title>
<ellipse fill="none" stroke="black" cx="652.3" cy="-234" rx="44.39" ry="18"/>
<text text-anchor="middle" x="652.3" y="-230.3" font-family="Times,serif" font-size="14.00">指す(16)</text>
</g>
<!-- 一分野を(15)&#45;&gt;指す(16) -->
<g id="edge16" class="edge">
<title>一分野を(15)&#45;&gt;指す(16)</title>
<path fill="none" stroke="black" d="M652.3,-287.7C652.3,-280.24 652.3,-271.32 652.3,-262.97"/>
<polygon fill="black" stroke="black" points="655.8,-263.1 652.3,-253.1 648.8,-263.1 655.8,-263.1"/>
</g>
<!-- 指す(16)&#45;&gt;語(17) -->
<g id="edge17" class="edge">
<title>指す(16)&#45;&gt;語(17)</title>
<path fill="none" stroke="black" d="M668.86,-217.12C678.51,-207.86 690.85,-196.03 701.53,-185.79"/>
<polygon fill="black" stroke="black" points="703.5,-188.79 708.3,-179.34 698.66,-183.74 703.5,-188.79"/>
</g>
<!-- される(35) -->
<g id="node36" class="node">
<title>される(35)</title>
<ellipse fill="none" stroke="black" cx="725.3" cy="-18" rx="53.09" ry="18"/>
<text text-anchor="middle" x="725.3" y="-14.3" font-family="Times,serif" font-size="14.00">される(35)</text>
</g>
<!-- 研究分野とも(34)&#45;&gt;される(35) -->
<g id="edge35" class="edge">
<title>研究分野とも(34)&#45;&gt;される(35)</title>
<path fill="none" stroke="black" d="M725.3,-71.7C725.3,-64.24 725.3,-55.32 725.3,-46.97"/>
<polygon fill="black" stroke="black" points="728.8,-47.1 725.3,-37.1 721.8,-47.1 728.8,-47.1"/>
</g>
<!-- 言語の(18) -->
<g id="node20" class="node">
<title>言語の(18)</title>
<ellipse fill="none" stroke="black" cx="53.3" cy="-594" rx="53.09" ry="18"/>
<text text-anchor="middle" x="53.3" y="-590.3" font-family="Times,serif" font-size="14.00">言語の(18)</text>
</g>
<!-- 推論(20) -->
<g id="node21" class="node">
<title>推論(20)</title>
<ellipse fill="none" stroke="black" cx="115.3" cy="-522" rx="44.39" ry="18"/>
<text text-anchor="middle" x="115.3" y="-518.3" font-family="Times,serif" font-size="14.00">推論(20)</text>
</g>
<!-- 言語の(18)&#45;&gt;推論(20) -->
<g id="edge19" class="edge">
<title>言語の(18)&#45;&gt;推論(20)</title>
<path fill="none" stroke="black" d="M67.99,-576.41C75.63,-567.78 85.13,-557.06 93.6,-547.5"/>
<polygon fill="black" stroke="black" points="95.7,-550.28 99.71,-540.47 90.46,-545.64 95.7,-550.28"/>
</g>
<!-- 問題解決などの(21) -->
<g id="node23" class="node">
<title>問題解決などの(21)</title>
<ellipse fill="none" stroke="black" cx="115.3" cy="-450" rx="89.88" ry="18"/>
<text text-anchor="middle" x="115.3" y="-446.3" font-family="Times,serif" font-size="14.00">問題解決などの(21)</text>
</g>
<!-- 推論(20)&#45;&gt;問題解決などの(21) -->
<g id="edge21" class="edge">
<title>推論(20)&#45;&gt;問題解決などの(21)</title>
<path fill="none" stroke="black" d="M115.3,-503.7C115.3,-496.24 115.3,-487.32 115.3,-478.97"/>
<polygon fill="black" stroke="black" points="118.8,-479.1 115.3,-469.1 111.8,-479.1 118.8,-479.1"/>
</g>
<!-- 理解や(19) -->
<g id="node22" class="node">
<title>理解や(19)</title>
<ellipse fill="none" stroke="black" cx="178.3" cy="-594" rx="53.09" ry="18"/>
<text text-anchor="middle" x="178.3" y="-590.3" font-family="Times,serif" font-size="14.00">理解や(19)</text>
</g>
<!-- 理解や(19)&#45;&gt;推論(20) -->
<g id="edge20" class="edge">
<title>理解や(19)&#45;&gt;推論(20)</title>
<path fill="none" stroke="black" d="M163.37,-576.41C155.49,-567.66 145.67,-556.75 136.97,-547.08"/>
<polygon fill="black" stroke="black" points="139.98,-545.08 130.68,-539.99 134.77,-549.76 139.98,-545.08"/>
</g>
<!-- 知的行動を(22) -->
<g id="node24" class="node">
<title>知的行動を(22)</title>
<ellipse fill="none" stroke="black" cx="115.3" cy="-378" rx="71.49" ry="18"/>
<text text-anchor="middle" x="115.3" y="-374.3" font-family="Times,serif" font-size="14.00">知的行動を(22)</text>
</g>
<!-- 問題解決などの(21)&#45;&gt;知的行動を(22) -->
<g id="edge22" class="edge">
<title>問題解決などの(21)&#45;&gt;知的行動を(22)</title>
<path fill="none" stroke="black" d="M115.3,-431.7C115.3,-424.24 115.3,-415.32 115.3,-406.97"/>
<polygon fill="black" stroke="black" points="118.8,-407.1 115.3,-397.1 111.8,-407.1 118.8,-407.1"/>
</g>
<!-- 代わって(24) -->
<g id="node25" class="node">
<title>代わって(24)</title>
<ellipse fill="none" stroke="black" cx="186.3" cy="-306" rx="61.99" ry="18"/>
<text text-anchor="middle" x="186.3" y="-302.3" font-family="Times,serif" font-size="14.00">代わって(24)</text>
</g>
<!-- 知的行動を(22)&#45;&gt;代わって(24) -->
<g id="edge23" class="edge">
<title>知的行動を(22)&#45;&gt;代わって(24)</title>
<path fill="none" stroke="black" d="M132.48,-360.05C141.2,-351.46 151.96,-340.86 161.55,-331.4"/>
<polygon fill="black" stroke="black" points="163.6,-334.3 168.27,-324.79 158.69,-329.32 163.6,-334.3"/>
</g>
<!-- 行わせる(26) -->
<g id="node27" class="node">
<title>行わせる(26)</title>
<ellipse fill="none" stroke="black" cx="361.3" cy="-234" rx="61.99" ry="18"/>
<text text-anchor="middle" x="361.3" y="-230.3" font-family="Times,serif" font-size="14.00">行わせる(26)</text>
</g>
<!-- 代わって(24)&#45;&gt;行わせる(26) -->
<g id="edge25" class="edge">
<title>代わって(24)&#45;&gt;行わせる(26)</title>
<path fill="none" stroke="black" d="M221.71,-290.83C248.87,-279.97 286.55,-264.9 315.92,-253.15"/>
<polygon fill="black" stroke="black" points="316.95,-256.11 324.93,-249.14 314.35,-249.61 316.95,-256.11"/>
</g>
<!-- 人間に(23) -->
<g id="node26" class="node">
<title>人間に(23)</title>
<ellipse fill="none" stroke="black" cx="258.3" cy="-378" rx="53.09" ry="18"/>
<text text-anchor="middle" x="258.3" y="-374.3" font-family="Times,serif" font-size="14.00">人間に(23)</text>
</g>
<!-- 人間に(23)&#45;&gt;代わって(24) -->
<g id="edge24" class="edge">
<title>人間に(23)&#45;&gt;代わって(24)</title>
<path fill="none" stroke="black" d="M241.6,-360.76C232.55,-351.97 221.19,-340.93 211.13,-331.14"/>
<polygon fill="black" stroke="black" points="214.01,-329.09 204.4,-324.63 209.13,-334.11 214.01,-329.09"/>
</g>
<!-- 技術または(27) -->
<g id="node29" class="node">
<title>技術または(27)</title>
<ellipse fill="none" stroke="black" cx="518.3" cy="-162" rx="71.49" ry="18"/>
<text text-anchor="middle" x="518.3" y="-158.3" font-family="Times,serif" font-size="14.00">技術または(27)</text>
</g>
<!-- 行わせる(26)&#45;&gt;技術または(27) -->
<g id="edge27" class="edge">
<title>行わせる(26)&#45;&gt;技術または(27)</title>
<path fill="none" stroke="black" d="M394.21,-218.33C417.47,-207.96 448.89,-193.94 474.3,-182.61"/>
<polygon fill="black" stroke="black" points="475.36,-185.53 483.07,-178.26 472.51,-179.14 475.36,-185.53"/>
</g>
<!-- コンピューターに(25) -->
<g id="node28" class="node">
<title>コンピューターに(25)</title>
<ellipse fill="none" stroke="black" cx="365.3" cy="-306" rx="98.58" ry="18"/>
<text text-anchor="middle" x="365.3" y="-302.3" font-family="Times,serif" font-size="14.00">コンピューターに(25)</text>
</g>
<!-- コンピューターに(25)&#45;&gt;行わせる(26) -->
<g id="edge26" class="edge">
<title>コンピューターに(25)&#45;&gt;行わせる(26)</title>
<path fill="none" stroke="black" d="M364.31,-287.7C363.88,-280.24 363.37,-271.32 362.89,-262.97"/>
<polygon fill="black" stroke="black" points="366.34,-262.89 362.27,-253.1 359.35,-263.29 366.34,-262.89"/>
</g>
<!-- 技術または(27)&#45;&gt;研究分野とも(34) -->
<g id="edge28" class="edge">
<title>技術または(27)&#45;&gt;研究分野とも(34)</title>
<path fill="none" stroke="black" d="M559.69,-147C592.01,-136.07 637.16,-120.81 672.15,-108.97"/>
<polygon fill="black" stroke="black" points="672.84,-112.09 681.19,-105.58 670.6,-105.46 672.84,-112.09"/>
</g>
<!-- 計算機(28) -->
<g id="node30" class="node">
<title>計算機(28)</title>
<ellipse fill="none" stroke="black" cx="1178.3" cy="-378" rx="53.09" ry="18"/>
<text text-anchor="middle" x="1178.3" y="-374.3" font-family="Times,serif" font-size="14.00">計算機(28)</text>
</g>
<!-- コンピュータによる(29) -->
<g id="node31" class="node">
<title>コンピュータによる(29)</title>
<ellipse fill="none" stroke="black" cx="1178.3" cy="-306" rx="108.58" ry="18"/>
<text text-anchor="middle" x="1178.3" y="-302.3" font-family="Times,serif" font-size="14.00">コンピュータによる(29)</text>
</g>
<!-- 計算機(28)&#45;&gt;コンピュータによる(29) -->
<g id="edge29" class="edge">
<title>計算機(28)&#45;&gt;コンピュータによる(29)</title>
<path fill="none" stroke="black" d="M1178.3,-359.7C1178.3,-352.24 1178.3,-343.32 1178.3,-334.97"/>
<polygon fill="black" stroke="black" points="1181.8,-335.1 1178.3,-325.1 1174.8,-335.1 1181.8,-335.1"/>
</g>
<!-- 情報処理システムの(31) -->
<g id="node32" class="node">
<title>情報処理システムの(31)</title>
<ellipse fill="none" stroke="black" cx="1268.3" cy="-234" rx="107.78" ry="18"/>
<text text-anchor="middle" x="1268.3" y="-230.3" font-family="Times,serif" font-size="14.00">情報処理システムの(31)</text>
</g>
<!-- コンピュータによる(29)&#45;&gt;情報処理システムの(31) -->
<g id="edge30" class="edge">
<title>コンピュータによる(29)&#45;&gt;情報処理システムの(31)</title>
<path fill="none" stroke="black" d="M1200.08,-288.05C1211.38,-279.26 1225.38,-268.38 1237.74,-258.76"/>
<polygon fill="black" stroke="black" points="1239.65,-260.93 1245.4,-252.03 1235.36,-255.41 1239.65,-260.93"/>
</g>
<!-- 実現に関する(33) -->
<g id="node34" class="node">
<title>実現に関する(33)</title>
<ellipse fill="none" stroke="black" cx="1089.3" cy="-162" rx="81.49" ry="18"/>
<text text-anchor="middle" x="1089.3" y="-158.3" font-family="Times,serif" font-size="14.00">実現に関する(33)</text>
</g>
<!-- 情報処理システムの(31)&#45;&gt;実現に関する(33) -->
<g id="edge32" class="edge">
<title>情報処理システムの(31)&#45;&gt;実現に関する(33)</title>
<path fill="none" stroke="black" d="M1227.23,-216.94C1200.75,-206.59 1166.19,-193.07 1138.28,-182.16"/>
<polygon fill="black" stroke="black" points="1139.92,-178.65 1129.33,-178.26 1137.37,-185.17 1139.92,-178.65"/>
</g>
<!-- 知的な(30) -->
<g id="node33" class="node">
<title>知的な(30)</title>
<ellipse fill="none" stroke="black" cx="1358.3" cy="-306" rx="53.09" ry="18"/>
<text text-anchor="middle" x="1358.3" y="-302.3" font-family="Times,serif" font-size="14.00">知的な(30)</text>
</g>
<!-- 知的な(30)&#45;&gt;情報処理システムの(31) -->
<g id="edge31" class="edge">
<title>知的な(30)&#45;&gt;情報処理システムの(31)</title>
<path fill="none" stroke="black" d="M1337.87,-289.12C1326.33,-280.14 1311.67,-268.73 1298.78,-258.71"/>
<polygon fill="black" stroke="black" points="1301.25,-255.42 1291.21,-252.04 1296.95,-260.95 1301.25,-255.42"/>
</g>
<!-- 実現に関する(33)&#45;&gt;研究分野とも(34) -->
<g id="edge34" class="edge">
<title>実現に関する(33)&#45;&gt;研究分野とも(34)</title>
<path fill="none" stroke="black" d="M1029.19,-149.44C965.07,-137.11 863.61,-117.6 795.78,-104.55"/>
<polygon fill="black" stroke="black" points="796.67,-100.97 786.19,-102.52 795.35,-107.84 796.67,-100.97"/>
</g>
<!-- 設計や(32) -->
<g id="node35" class="node">
<title>設計や(32)</title>
<ellipse fill="none" stroke="black" cx="1089.3" cy="-234" rx="53.09" ry="18"/>
<text text-anchor="middle" x="1089.3" y="-230.3" font-family="Times,serif" font-size="14.00">設計や(32)</text>
</g>
<!-- 設計や(32)&#45;&gt;実現に関する(33) -->
<g id="edge33" class="edge">
<title>設計や(32)&#45;&gt;実現に関する(33)</title>
<path fill="none" stroke="black" d="M1089.3,-215.7C1089.3,-208.24 1089.3,-199.32 1089.3,-190.97"/>
<polygon fill="black" stroke="black" points="1092.8,-191.1 1089.3,-181.1 1085.8,-191.1 1092.8,-191.1"/>
</g>
</g>
</svg>
